# Blender 4.0.2
# www.blender.org
mtllib Pisol.mtl
o Cube
v 2.809166 5.464983 -2.583800
v 3.697204 5.464983 -2.583800
v 2.809166 6.028699 3.064045
v 2.809166 6.028699 -2.581159
v 3.697204 6.028699 -2.581159
v 3.697204 6.028699 3.064045
v 2.809166 6.028699 -3.020719
v 3.697204 6.028699 -3.020719
v 3.697204 6.028699 -0.374012
v 2.809166 6.028699 -0.374012
v 3.697204 5.709248 -2.776538
v 2.809166 5.709248 -2.776538
v 2.809166 5.983191 -3.101841
v 3.697204 5.983191 -3.101841
v 3.697204 5.794327 -3.144557
v 2.809166 5.794327 -3.144557
v 2.921668 5.464983 2.951544
v 2.809166 5.577485 3.064045
v 2.921668 6.849298 2.951544
v 2.809166 6.736796 3.064045
v 2.921668 6.849298 -2.581159
v 2.809166 6.736796 -2.581159
v 3.584702 5.464983 2.951544
v 3.697204 5.577485 3.064045
v 3.584702 6.849298 2.951544
v 3.697204 6.736796 3.064045
v 3.584702 6.849298 -2.581159
v 3.697204 6.736796 -2.581159
v 2.921668 6.849298 -2.908217
v 2.809166 6.736796 -3.020719
v 3.584702 6.849298 -2.908217
v 3.697204 6.736796 -3.020719
v 2.809166 5.577485 -0.694137
v 2.921668 5.464983 -0.615060
v 2.809166 6.736796 -0.374012
v 2.921668 6.849298 -0.374012
v 3.584702 5.464983 -0.615060
v 3.697204 5.577485 -0.694137
v 3.697204 6.736796 -0.374012
v 3.584702 6.849298 -0.374012
v 3.584702 2.965842 -3.491821
v 3.697204 2.954574 -3.373546
v 3.584702 2.848188 -3.426441
v 2.921668 2.965842 -3.491821
v 2.921668 2.848187 -3.426441
v 2.809166 2.954574 -3.373546
v 3.697204 2.731342 -1.718459
v 3.584702 2.713552 -1.605296
v 3.584702 2.622735 -1.754885
v 2.809166 2.731342 -1.718459
v 2.921668 2.622735 -1.754885
v 2.921668 2.713552 -1.605296
v 2.921668 4.953192 -2.598777
v 2.809166 4.929014 -2.486304
v 2.809166 5.065646 -2.595486
v 2.809166 4.617984 -1.039459
v 2.921668 4.594127 -0.928480
v 3.697204 4.929014 -2.486304
v 3.584702 4.953192 -2.598777
v 3.697204 5.065646 -2.595486
v 3.584702 4.594127 -0.928480
v 3.697204 4.617984 -1.039459
v 3.138978 4.455404 1.057692
v 3.138978 5.525388 1.057692
v 3.138978 4.455404 0.814836
v 3.138978 5.525388 0.814836
v 3.381833 4.455404 1.057692
v 3.381833 5.525388 1.057692
v 3.381833 4.455404 0.814836
v 3.381833 5.525388 0.814836
v 3.138978 4.653942 1.057692
v 3.138978 4.653942 0.814836
v 3.381833 4.653942 0.814836
v 3.381833 4.653942 1.057692
v 3.138978 4.653942 -0.278155
v 3.138978 4.455404 -0.278155
v 3.381833 4.455404 -0.278155
v 3.381833 4.653942 -0.278155
v 3.138978 4.978954 -0.906997
v 3.138978 4.829513 -1.037706
v 3.381833 4.829513 -1.037706
v 3.381833 4.978954 -0.906997
vn -1.0000 -0.0000 -0.0000
vn -0.0000 -0.0000 -1.0000
vn 1.0000 -0.0000 -0.0000
vn -0.0000 1.0000 -0.0000
vn -0.0000 -0.0000 1.0000
vn -0.0000 -0.6194 -0.7850
vn -0.0000 -0.3386 0.9409
vn -0.0000 -1.0000 -0.0000
vn -0.0000 0.4099 -0.9121
vn -0.0000 -0.9910 -0.1337
vn -0.0000 0.0293 -0.9996
vn -0.0000 0.2206 -0.9754
vn -0.0000 -0.9743 -0.2252
vn -0.0000 0.8721 -0.4893
vn 0.6565 -0.3664 -0.6594
vn -0.6565 -0.3664 -0.6594
vn 0.5492 -0.7143 0.4337
vn -0.5492 -0.7143 0.4337
vn -0.5431 -0.5242 -0.6559
vn 0.5431 -0.5242 -0.6559
vn -0.7071 -0.7071 -0.0000
vn -0.7071 0.7071 -0.0000
vn 0.7071 0.7071 -0.0000
vn -0.0000 -0.7071 0.7071
vn -0.0000 0.7071 0.7071
vn -0.0000 0.7071 -0.7071
vn 0.7071 -0.7071 -0.0000
vn -0.0000 -0.4857 -0.8741
vn 0.7071 -0.7008 -0.0945
vn -0.7071 -0.7008 -0.0945
vn -0.0000 -0.8548 0.5190
vn -0.7071 0.2898 -0.6450
vn -0.7071 -0.2395 0.6653
vn 0.7071 0.2898 -0.6450
vn 0.7071 -0.2395 0.6653
vn -0.0000 0.6584 -0.7527
vn -0.0000 0.8884 0.4591
vn -0.0000 -0.8971 -0.4419
vt 0.867046 0.146324
vt 0.968510 0.146324
vt 0.968510 0.083338
vt 0.867046 0.083338
vt 0.464627 0.529854
vt 0.363209 0.529854
vt 0.363209 0.402605
vt 0.464627 0.402605
vt 0.867046 0.146324
vt 0.968510 0.146324
vt 0.968510 0.462590
vt 0.867046 0.462590
vt 0.262407 0.608414
vt 0.167400 0.608414
vt 0.167400 0.131894
vt 0.262407 0.131894
vt 0.006827 0.175057
vt 0.006827 0.110826
vt 0.134076 0.110826
vt 0.134076 0.175057
vt 0.262407 0.924677
vt 0.167400 0.924677
vt 0.867046 0.955235
vt 0.968510 0.955235
vt 0.867046 0.462590
vt 0.867046 0.955235
vt 0.665437 0.595661
vt 0.538188 0.595661
vt 0.538188 0.561510
vt 0.665437 0.561510
vt 0.665437 0.561510
vt 0.760444 0.561510
vt 0.760444 0.690614
vt 0.665437 0.690614
vt 0.802390 0.416718
vt 0.786270 0.145945
vt 0.729048 0.144271
vt 0.709470 0.159916
vt 0.664902 0.367236
vt 0.802390 0.416718
vt 0.802390 0.955235
vt 0.821271 0.118327
vt 0.833462 0.065593
vt 0.860525 0.071714
vt 0.016514 0.479354
vt 0.111521 0.479354
vt 0.111521 0.985717
vt 0.016514 0.985717
vt 0.554309 0.669028
vt 0.649316 0.669028
vt 0.649316 0.957532
vt 0.554309 0.957532
vt 0.262407 0.971541
vt 0.167400 0.971541
vt 0.760444 0.969410
vt 0.665437 0.969410
vt 0.968510 0.083338
vt 0.006827 0.010027
vt 0.134076 0.010027
vt 0.394562 0.269941
vt 0.426549 0.032781
vt 0.026916 0.203387
vt 0.121923 0.203387
vt 0.121923 0.445075
vt 0.026916 0.445075
vt 0.665437 0.652907
vt 0.538188 0.652907
vt 0.426549 0.032781
vt 0.394561 0.269941
vt 0.409594 0.529854
vt 0.381598 0.575629
vt 0.346609 0.529854
vt 0.545761 0.402605
vt 0.545761 0.529854
vt 0.518526 0.529854
vt 0.518526 0.402605
vt 0.409216 0.610630
vt 0.446312 0.584111
vt 0.409594 0.539711
vt 0.418566 0.529854
vt 0.446312 0.529986
vt 0.545761 0.529854
vt 0.545761 0.402605
vt 0.557414 0.402605
vt 0.557414 0.529854
vt 0.428163 0.015833
vt 0.411305 0.025202
vt 0.138044 0.448141
vt 0.121923 0.464552
vt 0.010795 0.448141
vt 0.026916 0.464552
vt 0.538188 0.672004
vt 0.665437 0.672004
vt 0.786270 0.428049
vt 0.786270 0.939114
vt 0.802390 0.955235
vt 0.984631 0.462590
vt 0.984631 0.146324
vt 0.984631 0.939114
vt 0.117955 0.192915
vt 0.022948 0.192915
vt 0.151279 0.115846
vt 0.278528 0.115846
vt 0.346609 0.513733
vt 0.346609 0.418726
vt 0.984631 0.099459
vt 0.984631 0.146324
vt 0.984631 0.099459
vt 0.786270 0.428049
vt 0.649316 0.974100
vt 0.554309 0.974100
vt 0.378999 0.264722
vt 0.712934 0.143799
vt 0.661483 0.383139
vt 0.392012 0.286157
vt 0.398350 0.968178
vt 0.273479 0.968178
vt 0.273479 0.933379
vt 0.398350 0.933379
vt 0.557414 0.527419
vt 0.557414 0.402605
vt 0.592214 0.402605
vt 0.592214 0.527419
vt 0.398350 0.933379
vt 0.398350 0.968178
vt 0.311810 0.526657
vt 0.311810 0.402605
vt 0.346609 0.402605
vt 0.346609 0.526657
vt 0.280683 0.862325
vt 0.315483 0.862325
vt 0.315483 0.896804
vt 0.280683 0.896804
vt 0.481111 0.529854
vt 0.481111 0.564653
vt 0.446312 0.564653
vt 0.446312 0.529854
vt 0.311810 0.554919
vt 0.346609 0.554919
vt 0.426799 0.933379
vt 0.426799 0.968178
vt 0.472028 0.719012
vt 0.506827 0.719012
vt 0.506827 0.875627
vt 0.472028 0.875627
vt 0.426799 0.968178
vt 0.426799 0.933379
vt 0.398350 0.776762
vt 0.426799 0.776762
vt 0.373192 0.667925
vt 0.351779 0.686654
vt 0.280683 0.707149
vt 0.315482 0.707149
vt 0.481111 0.529854
vt 0.503080 0.529854
vt 0.503080 0.564653
vt 0.481111 0.564653
vt 0.351779 0.686655
vt 0.373192 0.667925
vt 0.506827 0.965526
vt 0.472028 0.965526
vt 0.280683 0.592058
vt 0.315482 0.592058
s 0
usemtl Gun
f 4/1/1 22/2/1 30/3/1 7/4/1
f 7/5/2 30/6/2 32/7/2 8/8/2
f 5/9/3 28/10/3 39/11/3 9/12/3
f 40/13/4 36/14/4 19/15/4 25/16/4
f 24/17/5 6/18/5 3/19/5 18/20/5
f 27/21/4 21/22/4 36/14/4 40/13/4
f 3/23/1 20/24/1 35/11/1 10/25/1
f 9/12/3 39/11/3 26/24/3 6/26/3
f 2/27/6 1/28/6 12/29/6 11/30/6
f 37/31/7 34/32/7 57/33/7 61/34/7
f 33/35/1 1/36/1 55/37/1 54/38/1 56/39/1
f 38/40/3 9/12/3 6/26/3 24/41/3
f 8/4/3 11/42/3 15/43/3 14/44/3
f 10/25/1 35/11/1 22/2/1 4/1/1
f 34/45/8 37/46/8 23/47/8 17/48/8
f 53/49/9 59/50/9 41/51/9 44/52/9
f 21/22/4 27/21/4 31/53/4 29/54/4
f 61/34/7 57/33/7 52/55/7 48/56/7
f 28/10/3 5/9/3 8/4/3 32/57/3
f 6/18/5 26/58/5 20/59/5 3/19/5
f 58/38/3 62/39/3 47/60/3 42/61/3
f 45/62/10 43/63/10 49/64/10 51/65/10
f 1/28/11 2/27/11 60/66/11 59/50/11 53/49/11 55/67/11
f 56/39/1 54/38/1 46/68/1 50/69/1
f 5/9/3 11/42/3 8/4/3
f 4/70/3 12/71/3 7/72/3
f 15/73/12 16/74/12 13/75/12 14/76/12
f 11/42/3 5/9/3 2/36/3
f 12/71/3 4/70/3 1/77/3
f 11/5/13 12/8/13 16/76/13 15/75/13
f 12/78/1 7/79/1 13/80/1 16/81/1
f 7/82/14 8/83/14 14/84/14 13/85/14
f 2/36/3 5/9/3 9/12/3 38/40/3
f 2/36/3 38/40/3 62/39/3 58/38/3 60/37/3
f 33/35/1 10/25/1 4/1/1 1/36/1
f 41/86/15 42/61/15 43/87/15
f 44/86/16 45/87/16 46/68/16
f 47/88/17 48/89/17 49/64/17
f 50/90/18 51/65/18 52/91/18
f 53/49/19 54/92/19 55/67/19
f 58/93/20 59/50/20 60/66/20
f 34/94/21 17/95/21 18/96/21 33/35/21
f 36/97/22 21/98/22 22/2/22 35/11/22
f 40/97/23 25/99/23 26/24/23 39/11/23
f 17/100/24 23/101/24 24/17/24 18/20/24
f 25/16/25 19/15/25 20/102/25 26/103/25
f 29/104/26 31/105/26 32/7/26 30/6/26
f 31/106/23 27/107/23 28/10/23 32/57/23
f 21/98/22 29/108/22 30/3/22 22/2/22
f 19/99/22 36/97/22 35/11/22 20/24/22
f 23/95/27 37/109/27 38/40/27 24/41/27
f 27/107/23 40/97/23 39/11/23 28/10/23
f 43/110/28 45/111/28 44/52/28 41/51/28
f 49/112/29 43/87/29 42/61/29 47/60/29
f 45/87/30 51/112/30 50/69/30 46/68/30
f 48/89/31 52/91/31 51/65/31 49/64/31
f 53/113/32 44/86/32 46/68/32 54/38/32
f 57/114/33 34/94/33 33/35/33 56/39/33
f 58/38/34 42/61/34 41/86/34 59/113/34
f 62/39/35 38/40/35 37/109/35 61/114/35
f 52/115/33 57/114/33 56/39/33 50/69/33
f 47/60/35 62/39/35 61/114/35 48/115/35
f 18/96/1 3/23/1 10/25/1 33/35/1
f 71/116/1 64/117/1 66/118/1 72/119/1
f 72/120/2 66/121/2 70/122/2 73/123/2
f 73/124/3 70/118/3 68/117/3 74/125/3
f 74/126/5 68/127/5 64/128/5 71/129/5
f 65/130/8 69/131/8 67/132/8 63/133/8
f 70/134/4 66/135/4 64/136/4 68/137/4
f 67/138/5 74/126/5 71/129/5 63/139/5
f 69/140/3 73/124/3 74/125/3 67/141/3
f 72/142/4 73/143/4 78/144/4 75/145/4
f 63/146/1 71/116/1 72/119/1 65/147/1
f 78/148/3 77/149/3 81/150/3 82/151/3
f 65/147/1 72/119/1 75/148/1 76/149/1
f 73/124/3 69/140/3 77/149/3 78/148/3
f 69/131/8 65/130/8 76/152/8 77/153/8
f 80/154/36 79/155/36 82/156/36 81/157/36
f 76/149/1 75/148/1 79/158/1 80/159/1
f 75/145/37 78/144/37 82/160/37 79/161/37
f 77/153/38 76/152/38 80/162/38 81/163/38
